<svg width="800" height="600" xmlns="http://www.w3.org/2000/svg">
  <rect width="800" height="600" fill="#f8fafc"/>
  
  <!-- Tableau de bord -->
  <g transform="translate(100, 150)">
    <!-- Base du tableau de bord -->
    <rect x="0" y="100" width="600" height="200" fill="#374151" stroke="#1f2937" stroke-width="2" rx="10"/>
    
    <!-- Compteurs principaux -->
    <circle cx="150" cy="180" r="60" fill="#1f2937" stroke="#4b5563" stroke-width="3"/>
    <circle cx="450" cy="180" r="60" fill="#1f2937" stroke="#4b5563" stroke-width="3"/>
    
    <!-- Aiguilles -->
    <line x1="150" y1="180" x2="150" y2="140" stroke="#ef4444" stroke-width="3"/>
    <line x1="450" y1="180" x2="480" y2="160" stroke="#ef4444" stroke-width="3"/>
    
    <!-- Écran central -->
    <rect x="250" y="140" width="100" height="80" fill="#000000" stroke="#4b5563" stroke-width="2" rx="5"/>
    <rect x="260" y="150" width="80" height="60" fill="#1e40af" rx="3"/>
    
    <!-- Boutons et commandes -->
    <circle cx="100" cy="250" r="15" fill="#4b5563"/>
    <circle cx="130" cy="250" r="15" fill="#4b5563"/>
    <circle cx="470" cy="250" r="15" fill="#4b5563"/>
    <circle cx="500" cy="250" r="15" fill="#4b5563"/>
    
    <!-- Grilles d'aération -->
    <rect x="50" y="160" width="30" height="40" fill="#4b5563" rx="5"/>
    <rect x="520" y="160" width="30" height="40" fill="#4b5563" rx="5"/>
  </g>
  
  <!-- Texte -->
  <text x="400" y="450" text-anchor="middle" font-family="Arial, sans-serif" font-size="24" fill="#6b7280">Tableau de bord</text>
  <text x="400" y="480" text-anchor="middle" font-family="Arial, sans-serif" font-size="16" fill="#9ca3af">Image générique</text>
</svg>
